<?xml version="1.0" encoding="UTF-8"?>
<svg width="109px" height="24px" viewBox="0 0 109 24" version="1.1" xmlns="http://www.w3.org/2000/svg" xmlns:xlink="http://www.w3.org/1999/xlink">
    <!-- Generator: sketchtool 52.5 (67469) - http://www.bohemiancoding.com/sketch -->
    <title>35151940-DEBC-4BA6-9B95-E0FE43E885E6</title>
    <desc>Created with sketchtool.</desc>
    <g id="Page-1" stroke="none" stroke-width="1" fill="none" fill-rule="evenodd">
        <g id="MD-ChartVideoMobile" transform="translate(-33.000000, -836.000000)" fill-rule="nonzero">
            <g id="HelloFreshLogo-Copy-3" transform="translate(33.000000, 836.000000)">
                <path d="M72.4424488,4 L66.5572983,4 C66.2451303,4 66,4.2286111 66,4.51922248 L66,18.4805381 C66,18.7713889 66.2451303,19 66.5572983,19 L68.1176322,19 C68.4295472,19 68.6751834,18.7713889 68.6751834,18.4805381 L68.6751834,12.6010437 C68.6751834,12.4971513 68.7864913,12.393259 68.8980521,12.393259 L71.3501138,12.393259 C71.6622818,12.393259 71.9076651,12.1646479 71.9076651,11.8740365 L71.9076651,10.7726337 C71.9076651,10.4820223 71.6622818,10.2534112 71.3501138,10.2534112 L68.8980521,10.2534112 C68.7864913,10.2534112 68.6751834,10.1495188 68.6751834,10.0456265 L68.6751834,6.36821947 C68.6751834,6.26456648 68.7864913,6.1606741 68.8980521,6.1606741 L72.4424488,6.1606741 C72.7546167,6.1606741 73,5.93206301 73,5.64097285 L73,4.51922248 C73,4.2286111 72.7546167,4 72.4424488,4" id="Fill-1" fill="#91C11E"></path>
                <path d="M78.7563746,10.7726337 L77.9244327,10.7726337 C77.8116011,10.7726337 77.69928,10.6689807 77.69928,10.5648489 L77.69928,6.28515344 C77.69928,6.18126107 77.8116011,6.0773687 77.9244327,6.0773687 L78.7563746,6.0773687 C79.9714846,6.0773687 80.3314226,6.59683056 80.3314226,8.42524058 C80.3314226,10.2534112 79.9714846,10.7726337 78.7563746,10.7726337 Z M81.0962271,12.6218701 C81.0510434,12.4971513 81.1186913,12.3724326 81.2310124,12.3307799 C82.4683313,11.728252 82.9857742,10.8351127 82.9857742,8.48724087 C82.9857742,5.93206301 82.3560102,4 79.2066801,4 L75.562116,4 C75.2473617,4 75,4.2286111 75,4.51922248 L75,18.4805381 C75,18.7713889 75.2473617,19 75.562116,19 L77.137164,19 C77.4521736,19 77.69928,18.7713889 77.69928,18.4805381 L77.69928,12.9749605 C77.69928,12.8710681 77.8116011,12.7674151 77.9244327,12.7674151 L78.4416203,12.7674151 C78.5769161,12.7674151 78.6892372,12.8502418 78.7344209,12.9749605 L80.3538868,18.5013645 C80.4437437,18.7922153 80.7362891,19 81.0737629,19 L82.5809077,19 C82.8734531,19 83.0534221,18.7505626 82.9857742,18.5013645 L81.0962271,12.6218701 Z" id="Fill-2" fill="#91C11E"></path>
                <path d="M90.4481993,16.7770862 L86.8487148,16.7770862 C86.7384549,16.7770862 86.6276938,16.6729545 86.6276938,16.5693015 L86.6276938,12.4971513 C86.6276938,12.393259 86.7384549,12.2893666 86.8487148,12.2893666 L89.1671798,12.2893666 C89.4764087,12.2893666 89.7194816,12.0609949 89.7194816,11.7699047 L89.7194816,10.7106334 C89.7194816,10.4195433 89.4764087,10.1909322 89.1671798,10.1909322 L86.8487148,10.1909322 C86.7384549,10.1909322 86.6276938,10.0872792 86.6276938,9.98314741 L86.6276938,6.38904582 C86.6276938,6.28515344 86.7384549,6.18126107 86.8487148,6.18126107 L90.2712823,6.18126107 C90.5805112,6.18126107 90.8235842,5.95288936 90.8235842,5.66179921 L90.8235842,4.51922248 C90.8235842,4.2286111 90.5805112,4 90.2712823,4 L84.5518007,4 C84.2428224,4 84,4.2286111 84,4.51922248 L84,18.4805381 C84,18.7713889 84.2428224,19 84.5518007,19 L90.4481993,19 C90.7571776,19 91,18.7713889 91,18.4805381 L91,17.2963087 C91,17.0052186 90.7571776,16.7770862 90.4481993,16.7770862" id="Fill-3" fill="#91C11E"></path>
                <path d="M96.0565508,10.6151054 C94.6404208,9.36844544 93.6965891,8.54436636 93.6965891,7.41817901 C93.6965891,6.67426056 94.101307,6.07097073 95,6.07097073 C95.8540644,6.07097073 96.3034109,6.59386825 96.3034109,8.06154915 L96.3034109,8.48389837 C96.3034109,8.68499498 96.5058974,8.86593559 96.7303156,8.86593559 L98.3035384,8.86593559 C98.5730953,8.86593559 98.7977686,8.66483898 98.7977686,8.42343038 L98.7977686,7.94107653 C98.7977686,5.22673566 97.3594517,4 95,4 C92.2582722,4 91.1124641,5.66877751 91.1124641,7.51872731 C91.1124641,9.58969805 92.5729678,10.916982 93.9215174,12.083018 C95.2922537,13.2492857 96.415875,14.1539887 96.415875,15.501197 C96.415875,16.5870724 95.6967166,16.8884856 94.9775582,16.8884856 C93.9215174,16.8884856 93.4946127,16.2453471 93.4946127,15.1191598 L93.4946127,14.2946173 C93.4946127,14.0133601 93.2472426,13.7921075 92.932547,13.7921075 L91.5618106,13.7921075 C91.2473701,13.7921075 91,14.0133601 91,14.2946173 L91,15.3001004 C91,17.4514634 92.5283392,19 95,19 C97.3594517,19 99,17.5721677 99,15.3202564 C99,13.3299096 97.7190309,12.083018 96.0565508,10.6151054" id="Fill-4" fill="#91C11E"></path>
                <path d="M108.383305,4 L106.682077,4 C106.337074,4 106.065382,4.2286111 106.065382,4.51922248 L106.065382,10.1081055 C106.065382,10.2117585 105.942266,10.3158903 105.819151,10.3158903 L103.180849,10.3158903 C103.057734,10.3158903 102.934059,10.2117585 102.934059,10.1081055 L102.934059,4.51922248 C102.934059,4.2286111 102.662926,4 102.317923,4 L100.616415,4 C100.271133,4 100,4.2286111 100,4.51922248 L100,18.4805381 C100,18.7713889 100.271133,19 100.616415,19 L102.317923,19 C102.662926,19 102.934059,18.7713889 102.934059,18.4805381 L102.934059,12.7257624 C102.934059,12.6218701 103.057734,12.5179777 103.180849,12.5179777 L105.819151,12.5179777 C105.942266,12.5179777 106.065382,12.6218701 106.065382,12.7257624 L106.065382,18.4805381 C106.065382,18.7713889 106.337074,19 106.682077,19 L108.383305,19 C108.728587,19 109,18.7713889 109,18.4805381 L109,4.51922248 C109,4.2286111 108.728587,4 108.383305,4" id="Fill-5" fill="#91C11E"></path>
                <path d="M61.7145148,16.9142389 C61.5406075,17.2115058 61.3636312,17.4149248 61.1731005,17.5367796 C61.0897272,17.5903368 60.9252826,17.6478248 60.7623723,17.6478248 C60.6099477,17.6478248 60.4925603,17.6026205 60.4030492,17.5097553 C59.0470838,16.1008087 59.0342965,10.7089774 60.381055,8.4951991 C60.83526,7.74908384 61.4232201,7.66850241 61.654926,7.66850241 C61.6907304,7.66850241 61.7255119,7.67022213 61.7592703,7.67366158 C62.1111769,7.7080561 62.3965894,8.20137169 62.4756149,8.35172484 C63.5065271,10.3185997 62.9111504,14.9171461 61.7145148,16.9142389 Z M52.6260684,10.3854233 C52.6319506,5.67214659 53.4094185,3.12523288 54.0007033,2.53241888 C54.0692432,2.46338417 54.1336912,2.42530453 54.1820272,2.42530453 C54.3267795,2.42530453 54.547744,2.81789334 54.5643675,3.90082915 C54.5643675,3.90082915 54.5674365,4.00450404 54.5674365,4.03103695 C54.5674365,5.49943699 54.3779287,7.01009315 54.0303698,8.52664551 C53.6124808,10.3483263 52.8483117,11.8798649 52.6912837,12.1840106 C52.6495971,11.600778 52.6276029,10.9949432 52.6260684,10.3854233 Z M46.9768946,2.87857508 C47.0612907,2.79479988 47.1392933,2.75082404 47.2027183,2.75082404 C47.2183188,2.75082404 47.2669105,2.75082404 47.3298241,2.81813901 C47.5576938,3.06160303 47.7942588,3.90475995 47.5576938,5.5131948 C46.9047742,9.95278944 45.5961218,11.8695465 45.5961218,11.8695465 C45.4444644,6.78259801 46.2035186,3.64434435 46.9768946,2.87857508 Z M36.8473062,12.2982496 L36.8521653,12.2663118 C37.3825826,8.81040025 38.2027601,7.57907667 38.7935334,7.57907667 C39.0014549,7.57907667 39.1577157,7.73876548 39.252086,7.87241273 C39.9160027,8.81261132 39.8986119,10.3006654 39.2119339,11.3332378 C38.6659161,12.1540383 37.8436927,12.3262565 37.2503619,12.3262565 C37.1258136,12.3262565 37.001521,12.3183949 36.8810646,12.3026717 L36.8473062,12.2982496 Z M62.8321249,6.48213737 C62.311426,6.21803665 61.8221839,6.08979425 61.3365222,6.08979425 C60.8398634,6.08979425 60.3444833,6.2273723 59.8219942,6.51088136 C58.4036268,7.28033576 57.5399725,9.08039717 57.1041813,11.7987921 C56.5359136,14.4346402 55.0853222,17.0066128 54.3607937,16.9982598 C53.7480262,16.9911352 53.2818012,15.9757601 52.9876933,14.496059 C54.4533737,11.8621763 55.5541046,8.36843075 55.8714854,5.3139523 C55.9280053,4.77150169 55.9571603,4.25681237 55.9586948,3.78315078 L55.9584391,3.73475279 C55.8945026,1.28070427 54.7932602,0.356720237 53.7848536,0.310287645 C53.7654169,0.309304944 53.7459802,0.309059269 53.7265436,0.309059269 C53.2449738,0.309059269 52.7478035,0.588146177 52.2879722,1.11634763 C51.3833985,2.15604463 50.7020911,4.00843484 50.369877,6.33227557 C50.2026191,7.50046064 50.1361252,8.76200225 50.1573521,10.0815232 L50.1517257,10.0807862 C50.1097833,11.882076 50.2811332,13.5042686 50.6051634,14.8648173 C50.6430138,15.0940321 50.6777952,15.3220186 50.7205048,15.5527075 L50.7235738,15.5681851 L50.6990222,15.594718 C50.0949501,16.3061931 49.468628,16.8535572 48.8878288,17.1771113 L48.7768351,17.2422152 L48.7796483,17.24762 L48.7072721,17.2928242 L48.6980653,17.2815232 L48.6001146,17.3262361 C48.3349059,17.4471082 48.0865765,17.5087726 47.8638218,17.5087726 L47.8408046,17.5082813 C46.8963346,17.4918211 46.211191,16.3290408 45.8042991,14.0523697 L45.8025088,14.0422971 L45.8388248,13.9739994 C47.335962,11.4698331 48.0965506,8.92685024 48.1290304,8.8177705 L48.1748089,8.65193981 C49.1862844,5.44047497 49.199839,2.72036032 48.2103576,1.37528918 C47.8607528,0.899170847 47.4050134,0.637281196 46.8932656,0.618609888 C46.8692255,0.617627188 46.8451854,0.617381513 46.8211452,0.617381513 C46.2042858,0.617381513 45.6326935,0.905804074 45.1224802,1.47478759 C43.2417239,3.57260723 42.642511,8.91997134 43.5956764,15.0974716 L43.5979781,15.1119664 L43.588004,15.1232675 C42.9233201,15.8698741 42.2174611,16.4641621 41.4913982,16.8886887 C40.5742929,17.4119767 39.8403018,17.5321118 39.4855821,17.5571706 C39.4364789,17.5598731 39.3878871,17.5628212 39.3400626,17.5628212 C38.786884,17.5628212 38.3140096,17.3743884 37.9342267,17.002682 C37.2815629,16.3641724 36.9122656,15.0918211 36.8946192,13.4197564 L36.8941077,13.3797113 L36.9347713,13.3875729 C37.293583,13.4588187 37.6260528,13.4932132 37.9513617,13.4932132 C39.1492761,13.4932132 40.1530792,13.0738458 40.8545906,12.2800696 C41.4561052,11.5997953 41.8011066,10.6559116 41.8011066,9.69089979 C41.8011066,7.46852288 40.2824867,6.45634149 38.8715359,6.45634149 C38.2216853,6.45634149 37.256244,6.65337291 36.3457882,7.59283448 C35.5197286,8.44508138 34.9225616,9.72160917 34.5711666,11.3865493 L34.5624712,11.4290511 L34.5228306,11.4084144 C34.1333294,11.2094175 33.5233751,10.9092026 32.725959,10.6021087 L32.7044764,10.5937558 L32.7062666,10.5011362 C32.7397693,8.84651448 32.7952662,7.09190296 32.8494844,5.37856485 C32.887079,4.18556659 32.9251852,2.9810216 32.9566419,1.78974306 C32.982728,1.26768349 32.8436022,0.849544477 32.5433564,0.546627086 C32.0947778,0.0948305865 31.3853384,0 30.8689872,0 C30.6549277,0 30.4759055,0.0162145562 30.3631215,0.0299723616 C30.23576,0.0456955676 30.1475276,0.151827209 30.1621052,0.271225305 C30.3211792,1.59737947 30.3794893,5.53358583 30.3040442,9.84297267 L30.303277,9.88203501 L30.2636363,9.87392773 C29.932701,9.80661275 29.6212023,9.75551233 29.3086807,9.71792405 L29.2181466,9.70858839 C28.4902934,9.60663323 27.8038711,9.54447743 27.1778048,9.52359505 C27.0100354,9.51794452 26.844312,9.51548777 26.6803788,9.51548777 C26.6417612,9.51548777 26.5284657,9.51647047 26.4346069,9.51720749 L26.4358856,9.48355001 C26.5328134,6.995844 26.6775656,4.65382332 26.6788444,4.62999283 C26.7059534,4.08655953 26.5612012,3.65097758 26.2486795,3.33577644 C25.7819431,2.8655543 25.0425813,2.76679292 24.5047474,2.76679292 C24.2899208,2.76679292 24.11141,2.78227045 23.9991375,2.79504555 C23.8584772,2.81150578 23.7584805,2.92648173 23.7715236,3.05668953 C23.8669168,3.99934487 23.919089,6.87128672 23.8922357,9.73733238 L23.89198,9.76337394 L23.8656381,9.76877879 C22.8270535,9.98005937 21.9726061,10.2584093 21.5557401,10.4055686 C21.333241,10.4836933 21.0179062,10.6136554 20.6184309,10.7920156 C19.9447959,11.0927219 19.9143621,11.8216399 20.0931286,12.3545092 C20.211539,12.7068072 20.436084,12.9234927 20.4644718,12.9495342 C20.5312215,13.0084963 20.6171522,13.0406797 20.705896,13.0406797 C20.7483499,13.0406797 20.7900365,13.0338008 20.8296771,13.0202887 C20.9191882,12.9893336 21.5074041,12.7446412 21.7020268,12.661603 C21.7636616,12.6348244 21.8298998,12.6107483 21.9125058,12.5802846 C21.9613532,12.562596 22.010968,12.544416 22.0600712,12.5250077 L22.1728552,12.4815232 C22.2664582,12.4449176 22.364409,12.4070836 22.4728453,12.3712151 C22.6403589,12.3097963 22.7981542,12.2461664 22.973596,12.175412 C23.2280633,12.0724742 23.4914817,11.9660968 23.8116757,11.8634046 L23.8569428,11.8489098 L23.855664,11.8948511 C23.8464572,12.2650834 23.8357158,12.6267172 23.82344,12.9755758 C23.7549001,14.8852083 23.6216564,20.8799263 23.61603,21.1337087 C23.5615561,22.2839595 23.7497852,23.0590644 24.1914585,23.503245 C24.6853041,23.9997543 25.4205739,23.9997543 25.9571291,23.9997543 L26.2890874,24 C26.3581388,24 26.4230983,23.9724844 26.4670866,23.9245777 C26.5092847,23.8788822 26.5289772,23.8177091 26.5207933,23.7562903 C26.21799,21.5152421 26.2993173,15.5984031 26.3484205,13.156147 C26.3484205,12.631385 26.3571159,12.0272699 26.3745066,11.3605077 L26.3752738,11.3329921 L26.4034059,11.329307 C26.7120913,11.2902447 26.9944349,11.2597809 27.266293,11.2361961 C27.6910871,11.2018016 28.1401771,11.1843587 28.6010314,11.1843587 C28.885421,11.1843587 29.1815749,11.1912376 29.481565,11.2047497 L29.5332257,11.2067151 C29.5843749,11.2091719 29.6352684,11.2116286 29.6887193,11.2150681 L29.8183825,11.2241581 C29.9523934,11.2354591 30.092798,11.2509366 30.2449669,11.271082 L30.2743777,11.2750128 L30.2644036,11.7056812 C30.2280876,13.2880745 30.1784729,15.4554202 30.1114674,16.8142492 C30.0592953,17.9170847 30.2401077,18.6602518 30.6641346,19.0864981 C31.1022275,19.5267479 31.7142278,19.5631078 32.355383,19.5631078 L32.6546059,19.5633535 C32.7285165,19.5633535 32.7980794,19.5341181 32.8446252,19.4830177 C32.8893807,19.4348654 32.9103519,19.3702528 32.902168,19.305886 C32.726982,17.9512335 32.6451433,15.1827209 32.6835052,11.9005016 L32.6842724,11.8550517 L32.7285165,11.8705292 C33.5343722,12.1483878 34.1381886,12.4338622 34.3604318,12.5439247 L34.3796128,12.553506 L34.3783341,12.5741427 C34.2443232,14.9127239 34.7865047,16.8336575 35.9046263,17.9836626 C36.6542179,18.753854 37.6311677,19.1609377 38.7301084,19.1609377 C40.2190617,19.1609377 41.6489377,18.5941652 42.9785613,17.4770806 C43.448111,17.091862 43.7954141,16.7309653 44.0041028,16.4958542 L44.0419532,16.4533524 L44.0767347,16.5469547 C44.7222376,18.2155799 45.8551925,19.1724844 47.1848161,19.1724844 C47.1953017,19.1724844 47.2057872,19.171993 47.2318733,19.169782 C47.3492608,19.1683079 47.4717631,19.161429 47.6090987,19.1484082 C47.6221418,19.1479169 47.6354406,19.1471799 47.6479721,19.1457058 C48.057933,19.0985362 48.4776122,18.9847886 48.8967799,18.8069198 L48.9180069,18.7978299 C49.0220955,18.7528713 49.1226037,18.7042277 49.2220889,18.6531272 C49.295488,18.6148019 49.3686314,18.5750026 49.4548178,18.5253762 C49.4816711,18.5101443 49.5389582,18.4777152 49.5591621,18.4656771 C50.3136129,18.0121609 50.8744639,17.4515304 51.2120487,17.0611526 L51.2455514,17.022336 L51.2683128,17.0680315 C51.5685586,17.6758317 51.9363214,18.1593203 52.3536989,18.5081789 C53.8178449,19.9532398 55.7477044,19.1744498 57.3026402,15.1891084 L57.3026402,15.1910738 C57.6381789,16.9751663 58.3320179,18.703245 60.1079183,19.0673354 C60.3713367,19.1353875 60.6475424,19.1700276 60.928863,19.1700276 C61.2247611,19.1700276 61.5198921,19.131211 61.8053046,19.0550517 C63.0653653,18.7197052 64.5164682,16.7783806 64.9192682,13.1971747 C65.1972641,10.7286314 64.8172255,7.48891391 62.8321249,6.48213737 Z" id="Fill-6" fill="#91C11E"></path>
                <path d="M16.3331696,5.25712909 C16.3339097,5.28585443 16.5413711,5.46730288 16.6412781,5.63223425 C16.7411852,5.79716562 16.8364053,5.94390427 16.8632939,6.11027191 C16.8813018,6.22182201 16.8526865,6.25772869 16.8003894,6.25772869 C16.5038751,6.25772869 15.0713802,4.13540427 12.2288388,3.37992762 C10.633779,2.95598937 8.41337502,2.79201551 6.583472,3.39261465 C5.00888708,3.90919215 3.61808184,4.8758001 2.54549916,6.10165431 C1.33748688,7.48214663 0.559938442,9.13768416 0.406500901,10.9514505 C0.343596443,11.6971126 0.403540691,12.4633613 0.266384304,13.2016027 C0.231601839,13.3883175 0.165983855,13.5637815 0.0993791349,13.7390061 C0.0658300906,13.8261396 -0.209222736,14.6019634 0.332989024,15.6604925 C0.846585423,16.6630071 2.4265974,16.8166877 2.57337447,16.3654604 C2.70806401,15.951576 2.92045907,15.8591761 3.09067113,15.8591761 C3.32650118,15.8591761 3.4599573,16.0803613 3.58058585,16.1342213 C11.6560382,19.7449975 17.7326088,10.8939998 17.7326088,10.8939998 C17.8389297,10.2960338 17.8907334,9.68801395 17.9001074,9.08143036 C17.9087413,8.52535551 17.8742055,7.98675524 17.951911,7.43355292 C18.0244362,6.9172148 18.0466377,6.42481447 17.7853992,5.95036747 C17.5991527,5.61428091 17.2898108,5.43762002 16.9301453,5.32319739 C16.8393655,5.29447204 16.3294694,5.11517799 16.3331696,5.25712909 Z" id="Fill-8" fill="#91C11E"></path>
                <path d="M3.25262038,15.5631932 C3.08118256,15.5631932 2.86725797,15.666722 2.73159847,16.1304555 C2.58376441,16.6360297 0.992374191,16.4638394 0.475079196,15.3405797 C-0.0710372286,14.154559 0.205996354,13.2852933 0.247737737,13.1686224 C0.229103191,13.2187775 0.218667845,13.2501579 0.207984039,13.2815384 C0.221152451,13.2439891 0.23307856,13.2061716 0.247489276,13.1691588 C0.23307856,13.2064398 0.22090399,13.2445255 0.207735578,13.282343 C0.171211868,13.3901631 0.137421225,13.4993242 0.108599794,13.610631 C0.0936921571,13.6707098 0.0807722053,13.7310568 0.0688460959,13.7916721 C0.0651191867,13.810715 0.0616407382,13.830026 0.0581622896,13.8490689 C0.0464846408,13.9147801 0.0358008345,13.9802231 0.0278500949,14.0459343 C0.0358008345,13.9804913 0.0464846408,13.9150483 0.0581622896,13.8496053 C-0.00966745747,14.2202703 -0.0225874093,14.6043457 0.0430061923,14.9755471 C0.224133978,15.999033 0.920817534,16.5257957 1.79987118,16.8020511 C2.37406365,16.9825558 2.92788236,17.1399946 3.45337655,17.458627 C3.92296711,17.743465 4.3803831,18.0529784 4.87730432,18.2817607 C7.02102248,19.268502 9.52923236,19.1955491 11.6930758,18.325747 C13.9083506,17.435561 15.8008751,15.732165 16.9186994,13.4741125 C17.4553743,12.3894749 17.8071946,11.2101595 18,10 C18,10 11.8796697,19.9170316 3.74606315,15.8713655 C3.62456591,15.8110184 3.49014872,15.5631932 3.25262038,15.5631932 Z" id="Fill-9" fill="#659A41"></path>
                <path d="M6.60464518,6.99909381 C6.5023238,7.03585398 5.71310072,5.94318944 6.11154601,5.72947338 C8.74678433,4.31509391 12.8002446,5.18973258 14.7686754,6.38786081 C14.9233472,6.48191616 14.9912971,6.53464799 14.9915615,6.5594928 C15.2258166,6.94331975 10.5372763,5.58953119 6.60464518,6.99909381" id="Fill-11" fill="#FFFFFE"></path>
            </g>
        </g>
    </g>
</svg>