<?xml version="1.0" encoding="UTF-8"?>
<svg width="140px" height="38px" viewBox="0 0 140 38" version="1.1" xmlns="http://www.w3.org/2000/svg" xmlns:xlink="http://www.w3.org/1999/xlink">
    <!-- Generator: sketchtool 52.5 (67469) - http://www.bohemiancoding.com/sketch -->
    <title>AD3F4DA7-953A-4E69-95AB-3443D8C0EDEE</title>
    <desc>Created with sketchtool.</desc>
    <g id="Page-1" stroke="none" stroke-width="1" fill="none" fill-rule="evenodd">
        <g id="MD-ChartVideoDesktop" transform="translate(-578.000000, -419.000000)">
            <g id="MD-LogoHomeChef" transform="translate(578.000000, 419.000000)">
                <path d="M1.65170423,22.8186103 C1.65170423,27.0775333 1.65170423,31.3374308 1.65071831,35.5963538 C1.65071831,35.8077897 1.6181831,35.9860974 1.95043662,35.9851231 C5.25029577,35.9734308 8.55114085,35.9763538 11.851,35.9822 C12.0688873,35.9822 12.1319859,35.9178923 12.1398732,35.702559 C12.1724085,34.7856872 12.2286056,33.8707641 12.271,32.9538923 C12.3232535,31.8723538 12.3725493,30.7908154 12.4188873,29.7083026 C12.4731127,28.4767128 12.5145211,27.2431744 12.5786056,26.0115846 C12.6111408,25.4143026 12.5993099,24.8170205 12.6348028,24.2187641 C12.6663521,23.6731231 12.6318451,23.1079949 12.2867746,22.6120462 C11.1933944,21.0374821 10.7645211,19.2641487 10.8039577,17.3816872 C10.8305775,16.1773795 10.9548028,14.9750205 11.0336761,13.7707128 C11.1115634,12.5936872 11.1884648,11.4156872 11.2653662,10.2386615 C11.2840986,9.97071282 11.3817042,9.73199487 11.687338,9.74466154 C11.9850845,9.75732821 12.1349437,9.9687641 12.1349437,10.2688667 C12.1359296,10.9548154 12.1300141,11.637841 12.1842394,12.3257385 C12.2808592,13.5563538 12.1645211,14.7957385 12.2660704,16.0312256 C12.3281831,16.7805077 12.2769155,17.538559 12.2779014,18.2927128 C12.2788873,18.5090205 12.3380423,18.7331231 12.5825493,18.7448154 C12.8576197,18.7584564 12.8743803,18.5177897 12.8901549,18.3034308 C12.9394507,17.6564564 12.9138169,17.0085077 12.9502958,16.3595846 C13.0449437,14.6564051 13.0656479,12.9493282 13.1395915,11.2442 C13.1563521,10.8544564 13.0518451,10.4569179 13.1987465,10.0710718 C13.2697324,9.88496923 13.3377606,9.70178974 13.5842394,9.72712308 C13.8593099,9.75635385 13.9953662,9.94148205 13.9933944,10.193841 C13.9894507,10.5631231 14.0219859,10.9275333 14.0417042,11.2948667 C14.1048028,12.4660462 14.0545211,13.6401487 14.1205775,14.8123026 C14.1679014,15.6668154 14.1166338,16.5262 14.1511408,17.3807128 C14.1659296,17.7470718 14.2043803,18.1144051 14.2162113,18.4817385 C14.2201549,18.6064564 14.2615634,18.7116872 14.3936761,18.7467641 C14.5208592,18.7798923 14.6174789,18.7272769 14.6933944,18.6230205 C14.7762113,18.5090205 14.7574789,18.3794308 14.7624085,18.2527641 C14.7860704,17.6048154 14.7732535,16.9568667 14.8126901,16.3069692 C14.8915634,14.9964564 14.907338,13.6810718 14.9093099,12.3676359 C14.9102958,11.6534308 14.9901549,10.9440974 14.9990282,10.2308667 C15.0029718,9.92978974 15.1902958,9.73978974 15.4860704,9.74368718 C15.7995915,9.74855897 15.8360704,9.98337949 15.8636761,10.2571744 C15.9208592,10.8417897 15.876493,11.4322513 15.9425493,12.0080974 C16.0697324,13.1139949 16.0401549,14.2276872 16.1742394,15.3306615 C16.2057887,15.5917897 16.167338,15.8509692 16.2097324,16.1208667 C16.2974789,16.6811231 16.3379014,17.2589179 16.296493,17.8230718 C16.2698732,18.1904051 16.2452254,18.5674821 16.1831127,18.9396872 C15.9839577,20.1332769 15.712831,21.3064051 15.0079014,22.3099949 C14.5740986,22.9267641 14.4202958,23.5717897 14.4518451,24.2928154 C14.5257887,25.9735846 14.5997324,27.6553282 14.6726901,29.3351231 C14.7298732,30.6475846 14.7821268,31.9590718 14.8412817,33.2715333 C14.8777606,34.0841487 14.9250845,34.8967641 14.9566338,35.7093795 C14.9625493,35.8984051 15.0108592,35.9822 15.2208592,35.9812256 C17.3179014,35.9753795 19.4149437,35.9753795 21.511,35.9812256 C21.6963521,35.9822 21.7525493,35.9227641 21.7624085,35.7444564 C21.7959296,35.1617897 21.8619859,34.5820462 21.8905775,34.0003538 C21.9733944,32.2942513 21.9842394,30.5862 21.7367746,28.8908154 C21.4538169,26.9547641 21.021,25.0450205 20.6266338,23.1284564 C20.4225493,22.1404564 20.227338,21.1475846 20.1376197,20.1469179 C20.0005775,18.629841 20.2115634,17.1264051 20.4669155,15.6297897 C20.8386056,13.4540462 21.5740986,11.4361487 22.9977606,9.70081538 C23.1624085,9.50009744 23.3231127,9.31399487 23.6070563,9.40558462 C23.8880423,9.4962 23.9274789,9.73199487 23.9284648,9.99507179 C23.9393099,14.4829692 23.9570563,18.971841 23.8663521,23.4587641 C23.8111408,26.1811231 23.7993099,28.9044564 23.7717042,31.6277897 C23.7648028,32.3176359 23.7095915,33.0152769 23.7914225,33.6953795 C23.8683239,34.3374821 23.855507,34.9825077 23.926493,35.6246103 C23.9590282,35.919841 24.0112817,35.9831744 24.2893099,35.9831744 C27.344662,35.9753795 30.3990282,35.9744051 33.4524085,35.9831744 C33.7274789,35.9841487 33.831,35.9325077 33.831,35.6304564 C33.8221268,27.1496359 33.8231127,18.6697897 33.8280423,10.1899436 C33.8280423,9.9687641 33.761,9.85378974 33.5569155,9.75148205 C28.3759296,7.15384103 23.1979014,4.54937949 18.0238169,1.93907179 C17.7940986,1.82312308 17.6225493,1.82604615 17.3898732,1.94296923 C12.2887465,4.49968718 7.18564789,7.05055897 2.07367606,9.58486667 C1.74240845,9.74855897 1.64283099,9.92102051 1.6438169,10.2717897 C1.6566338,14.4537385 1.65170423,18.6366615 1.65170423,22.8186103 M0.00818309859,8.7742 C1.25043662,8.14866154 2.49071831,7.51825128 3.73592958,6.89661026 C6.39790141,5.56466154 9.0638169,4.23855897 11.7267746,2.90953333 C13.6069155,1.97122564 15.4890282,1.03778974 17.3622676,0.0868153846 C17.5959296,-0.0320564103 17.7556479,-0.0262102564 17.9853662,0.0897384615 C20.4767746,1.34861026 22.9750845,2.59189231 25.4704366,3.84199487 C28.4538169,5.33861026 31.4224085,6.86445641 34.4274789,8.31625128 C35.2418451,8.70989231 35.5297324,9.15225128 35.5248028,10.0808154 C35.4784648,19.2641487 35.4962113,28.4474821 35.4962113,37.6308154 C23.7776197,37.6308154 12.0590282,37.629841 0.339450704,37.6376359 C0.0653661972,37.6386103 -0.000690140845,37.5879436 0.000295774648,37.3063538 C0.00916901408,27.7956359 0.00818309859,18.2858923 0.00818309859,8.7742" id="Fill-1" fill="#339D48"></path>
                <path d="M131.927324,19.8356103 C131.927324,21.7346359 131.92831,23.6336615 131.924366,25.5336615 C131.924366,25.6593538 131.947042,25.7012513 132.08507,25.6993026 C132.74662,25.6915077 133.408169,25.6915077 134.069718,25.6993026 C134.207746,25.7012513 134.246197,25.6690974 134.245211,25.5287897 C134.239296,24.1529949 134.243239,22.7762256 134.23831,21.3994564 C134.237324,21.2649949 134.266901,21.2289436 134.408873,21.2289436 C135.711268,21.2357641 137.013662,21.2299179 138.31507,21.2367385 C138.474789,21.2377128 138.50338,21.1928923 138.501408,21.0457641 C138.492535,20.4192513 138.492535,19.7907897 138.501408,19.1633026 C138.50338,19.0161744 138.46,18.9830462 138.317042,18.9840205 C137.009718,18.9888923 135.702394,18.9849949 134.39507,18.9898667 C134.268873,18.9898667 134.23831,18.9557641 134.23831,18.8339692 C134.244225,17.9443795 134.246197,17.0547897 134.236338,16.1652 C134.235352,16.0024821 134.28169,15.9713026 134.436479,15.9722769 C136.199296,15.9781231 137.963099,15.9732513 139.725915,15.9790974 C139.876761,15.9800718 139.905352,15.9352513 139.90338,15.7968923 C139.896479,15.2424821 139.895493,14.6880718 139.904366,14.1336615 C139.906338,14.0011487 139.869859,13.9719179 139.738732,13.9719179 C137.192113,13.9767897 134.646479,13.9767897 132.099859,13.9709436 C131.947042,13.9709436 131.924366,14.0196615 131.924366,14.1541231 C131.92831,16.0482769 131.927324,17.9424308 131.927324,19.8356103 Z M121.597887,19.8190462 C121.597887,21.7278154 121.598873,23.637559 121.595915,25.5473026 C121.595915,25.6564308 121.61169,25.6993026 121.738873,25.6993026 C124.390986,25.6944308 127.043099,25.6944308 129.695211,25.6993026 C129.820423,25.6993026 129.840141,25.6593538 129.839155,25.5482769 C129.833239,24.9880205 129.830282,24.4287385 129.840141,23.8694564 C129.843099,23.7184308 129.793803,23.6921231 129.654789,23.6930974 C127.791408,23.6969949 125.929014,23.6940718 124.064648,23.6979692 C123.942394,23.6989436 123.903944,23.6697128 123.90493,23.5430462 C123.910845,22.763559 123.912817,21.9840718 123.903944,21.2045846 C123.902958,21.0613538 123.946338,21.0350462 124.081408,21.0360205 C125.393662,21.0408923 126.705915,21.0369949 128.019155,21.0418667 C128.152254,21.042841 128.183803,21.0077641 128.182817,20.8781744 C128.17493,20.2350974 128.17493,19.5920205 128.182817,18.9489436 C128.183803,18.8183795 128.150282,18.7852513 128.018169,18.7862256 C126.7,18.7910974 125.381831,18.7872 124.063662,18.7920718 C123.941408,18.7920718 123.903944,18.7638154 123.90493,18.6381231 C123.910845,17.8167385 123.907887,16.9953538 123.908873,16.1739692 C123.908873,15.9498667 123.882254,15.9761744 124.113944,15.9761744 C125.90831,15.9752 127.702676,15.9732513 129.497042,15.9800718 C129.665634,15.9800718 129.695211,15.9313538 129.693239,15.7793538 C129.68338,15.2356615 129.685352,14.6909949 129.692254,14.1473026 C129.694225,14.0147897 129.668592,13.9709436 129.52169,13.9719179 C126.933662,13.9767897 124.345634,13.9767897 121.75662,13.9719179 C121.618592,13.9719179 121.595915,14.0118667 121.595915,14.137559 C121.599859,16.0317128 121.597887,17.9258667 121.597887,19.8190462 Z M81.69,19.8190462 C81.69,21.7239179 81.69,23.6287897 81.6890141,25.5326872 C81.6890141,25.6223282 81.6722535,25.6993026 81.818169,25.6993026 C84.4811268,25.6944308 87.1440845,25.6954051 89.8070423,25.6983282 C89.9125352,25.6983282 89.9371831,25.6671487 89.9371831,25.5667897 C89.9322535,25.0026359 89.9292958,24.4375077 89.938169,23.8723795 C89.9401408,23.7301231 89.9046479,23.6911487 89.7577465,23.6921231 C87.8943662,23.6979692 86.0309859,23.6940718 84.1676056,23.6979692 C84.0433803,23.6989436 84.0078873,23.6667897 84.0088732,23.5420718 C84.0138028,22.7625846 84.0157746,21.9830974 84.0078873,21.2036103 C84.0059155,21.0574564 84.0522535,21.0360205 84.1853521,21.0360205 C85.6040845,21.0408923 87.0228169,21.0360205 88.4415493,21.042841 C88.5923944,21.0438154 88.6219718,20.9980205 88.6209859,20.8606359 C88.6130986,20.2321744 88.6121127,19.6046872 88.6209859,18.9762256 C88.6229577,18.8310462 88.5933803,18.7842769 88.433662,18.7852513 C87.0257746,18.7920718 85.6178873,18.7852513 84.21,18.7940205 C84.0364789,18.7949949 84.0069014,18.7423795 84.0078873,18.5864821 C84.0157746,17.7806872 84.0157746,16.9739179 84.0078873,16.1690974 C84.0059155,16.0102769 84.0453521,15.9713026 84.2070423,15.9713026 C86.006338,15.9781231 87.8066197,15.9742256 89.6059155,15.9781231 C89.7380282,15.9790974 89.7883099,15.9586359 89.7853521,15.8115077 C89.774507,15.2512513 89.775493,14.6919692 89.7843662,14.1317128 C89.786338,13.9953026 89.7429577,13.9719179 89.6167606,13.9728923 C87.0326761,13.9767897 84.4495775,13.9767897 81.8664789,13.9719179 C81.7176056,13.9719179 81.6870423,14.0138154 81.6870423,14.1541231 C81.6919718,16.0424308 81.69,17.9307385 81.69,19.8190462 Z M42.2869014,19.8317128 C42.2869014,21.7356103 42.2888732,23.6395077 42.2839437,25.5443795 C42.2839437,25.6661744 42.3135211,25.7002769 42.4387324,25.6993026 C43.1061972,25.6924821 43.7726761,25.6924821 44.4401408,25.6993026 C44.5732394,25.7002769 44.6047887,25.6622769 44.6038028,25.5346359 C44.5988732,24.1062256 44.6028169,22.6778154 44.5978873,21.2494051 C44.5969014,21.1139692 44.6284507,21.0769436 44.7704225,21.0769436 C46.4425352,21.0827897 48.1156338,21.0827897 49.7877465,21.0779179 C49.9297183,21.0769436 49.9730986,21.1081231 49.9730986,21.2552513 C49.9661972,22.6836615 49.9701408,24.1120718 49.9661972,25.5395077 C49.9661972,25.6544821 49.9839437,25.7012513 50.1170423,25.6993026 C50.784507,25.6915077 51.4519718,25.6924821 52.1184507,25.6993026 C52.2397183,25.7002769 52.2643662,25.6652 52.2643662,25.5512 C52.2604225,21.737559 52.2604225,17.9248923 52.2633803,14.1112513 C52.2643662,14.0021231 52.2367606,13.9719179 52.1253521,13.9728923 C51.4638028,13.9787385 50.8012676,13.9797128 50.1397183,13.9719179 C50.0046479,13.9709436 49.9642254,13.9982256 49.9652113,14.1404821 C49.9711268,15.6049436 49.9661972,17.0703795 49.9730986,18.534841 C49.9730986,18.6917128 49.9267606,18.7189949 49.7788732,18.7189949 C48.1116901,18.7141231 46.444507,18.7141231 44.7773239,18.7189949 C44.6274648,18.7199692 44.5969014,18.6770974 44.5978873,18.5377641 C44.6028169,17.0684308 44.5988732,15.5981231 44.6038028,14.1287897 C44.6038028,14.0050462 44.5722535,13.9709436 44.4470423,13.9728923 C43.7795775,13.9787385 43.1130986,13.9797128 42.4466197,13.9719179 C42.3115493,13.9699692 42.2839437,14.0079692 42.2839437,14.1356103 C42.2888732,16.0346359 42.2869014,17.9336615 42.2869014,19.8317128 Z M108.902254,19.8365846 C108.902254,21.7346359 108.904225,23.6336615 108.900282,25.5336615 C108.900282,25.6613026 108.927887,25.7002769 109.062958,25.6993026 C109.724507,25.6924821 110.386056,25.6915077 111.047606,25.6993026 C111.185634,25.7012513 111.221127,25.6681231 111.221127,25.5297641 C111.214225,24.1013538 111.219155,22.6729436 111.213239,21.2455077 C111.212254,21.1003282 111.255634,21.0769436 111.388732,21.0779179 C113.067746,21.0818154 114.744789,21.0827897 116.422817,21.0769436 C116.569718,21.0759692 116.59338,21.1198154 116.59338,21.2523282 C116.588451,22.6807385 116.592394,24.1081744 116.586479,25.5365846 C116.586479,25.6681231 116.623944,25.7002769 116.753099,25.6993026 C117.414648,25.6924821 118.077183,25.6934564 118.738732,25.6983282 C118.850141,25.6993026 118.892535,25.678841 118.892535,25.5550974 C118.888592,21.7414564 118.888592,17.9278154 118.892535,14.1141744 C118.892535,13.9875077 118.846197,13.9728923 118.736761,13.9728923 C118.075211,13.9777641 117.413662,13.9787385 116.751127,13.9719179 C116.62,13.9709436 116.586479,14.0069949 116.586479,14.1365846 C116.591408,15.6068923 116.587465,17.0762256 116.59338,18.5465333 C116.59338,18.6809949 116.564789,18.7189949 116.420845,18.7189949 C114.743803,18.7141231 113.065775,18.7141231 111.387746,18.7189949 C111.250704,18.7189949 111.212254,18.6907385 111.213239,18.5504308 C111.219155,17.0791487 111.214225,15.6098154 111.221127,14.1395077 C111.221127,13.9972513 111.180704,13.9709436 111.045634,13.9719179 C110.39,13.9797128 109.73338,13.9806872 109.076761,13.9709436 C108.923944,13.9689949 108.900282,14.0196615 108.900282,14.1550974 C108.904225,16.0492513 108.902254,17.9424308 108.902254,19.8365846 Z M69.8905634,19.2451487 C70.3933803,19.7576615 70.8685915,20.2419179 71.3428169,20.7271487 C71.9530986,21.3507385 72.566338,21.9723795 73.1716901,22.600841 C73.2574648,22.6895077 73.2969014,22.6622256 73.3669014,22.5910974 C74.2985915,21.6342769 75.2342254,20.6803795 76.1678873,19.7264821 C76.3197183,19.571559 76.4705634,19.4166359 76.6509859,19.2334564 L76.6509859,19.4565846 C76.6509859,21.4803282 76.6529577,23.5060205 76.6480282,25.5297641 C76.6470423,25.6700718 76.684507,25.7012513 76.8215493,25.6993026 C77.4732394,25.6915077 78.1239437,25.6905333 78.7746479,25.7002769 C78.9294366,25.7022256 78.9649296,25.6613026 78.9649296,25.5102769 C78.96,21.6605846 78.9609859,17.8108923 78.96,13.9612 C78.96,13.9105333 78.9767606,13.8579179 78.9452113,13.8101744 C78.9333803,13.8130974 78.9205634,13.8121231 78.9146479,13.8189436 C78.3369014,14.4074564 77.758169,14.9959692 77.1804225,15.5854564 C75.9115493,16.8813538 74.6416901,18.1772513 73.3738028,19.4760718 C73.2890141,19.5637641 73.243662,19.5666872 73.1569014,19.4770462 C72.4687324,18.7657641 71.7776056,18.0603282 71.0864789,17.3548923 C70.0414085,16.2869949 68.9953521,15.2210462 67.9502817,14.1541231 C67.8329577,14.0333026 67.7156338,13.9124821 67.5785915,13.7712 C67.5746479,13.8296615 67.5726761,13.8452513 67.5726761,13.8598667 C67.5716901,17.7621744 67.5726761,21.6644821 67.5687324,25.5667897 C67.5687324,25.6866359 67.6140845,25.6983282 67.7156338,25.6983282 C68.3880282,25.6944308 69.0594366,25.6915077 69.731831,25.6993026 C69.8659155,25.7002769 69.894507,25.6642256 69.894507,25.5356103 C69.8895775,23.5060205 69.8905634,21.4764308 69.8905634,19.446841 L69.8905634,19.2451487 Z" id="Fill-4" fill="#FDFEFD"></path>
                <path d="M59.9199014,23.4447333 C61.9360986,23.4447333 63.5717324,21.8302205 63.5727183,19.8366821 C63.5727183,17.8450923 61.9360986,16.2266821 59.9208873,16.2266821 C57.9086338,16.2266821 56.2641268,17.8489897 56.2641268,19.8357077 C56.2631408,21.8224256 57.906662,23.443759 59.9199014,23.4447333 Z M59.376662,25.8163231 C59.1627183,25.7393487 58.9349718,25.7393487 58.7151127,25.6974513 C56.319338,25.2278103 54.3987746,23.3005282 53.9738451,20.9289385 C53.4079296,17.7778615 55.3353944,14.8197077 58.4656761,14.0324256 C61.6679296,13.2266308 64.9924366,15.197759 65.7890563,18.3741692 C66.6122958,21.657759 64.5635634,24.9364769 61.2232817,25.6760154 C60.997507,25.7266821 60.764831,25.7481179 60.5351127,25.7841692 C60.5065211,25.7880667 60.4700423,25.7734513 60.4562394,25.8163231 L59.376662,25.8163231 Z" id="Fill-7" fill="#339D48"></path>
                <path d="M101.782761,25.8159333 C101.574732,25.7438308 101.352901,25.7399333 101.137972,25.6980359 C98.7017746,25.2196256 96.7969859,23.2835744 96.3769859,20.8554718 C95.8288169,17.6907538 97.8647324,14.6673179 101.050225,13.9998821 C103.185718,13.5526513 105.054028,14.1304462 106.634451,15.620241 C106.718254,15.6991641 106.691634,15.7371641 106.625577,15.8024462 C106.121775,16.2954718 105.618958,16.7894718 105.122056,17.2902923 C105.035296,17.3779846 104.993887,17.3653179 104.913042,17.2863949 C104.191352,16.5780359 103.316845,16.2233692 102.301352,16.228241 C100.208254,16.2379846 98.5469859,18.0161897 98.6958592,20.076959 C98.8437465,22.1377282 100.663746,23.6470103 102.74107,23.4238821 C103.589944,23.3322923 104.319521,22.9766513 104.924873,22.3803436 C105.003746,22.3023949 105.043183,22.3033692 105.12107,22.3813179 C105.618958,22.8801897 106.119803,23.3761385 106.626563,23.8672154 C106.707408,23.9471128 106.701493,23.9860872 106.623606,24.0611128 C105.596282,25.0539846 104.372761,25.6347026 102.942197,25.7847538 C102.913606,25.7876769 102.877127,25.7750103 102.862338,25.8159333 L101.782761,25.8159333 Z" id="Fill-9" fill="#339D48"></path>
                <path d="M69.8907606,19.2446615 L69.8907606,19.4463538 C69.8907606,21.4759436 69.8897746,23.5055333 69.8937183,25.5351231 C69.8947042,25.6647128 69.8661127,25.6997897 69.7320282,25.6988154 C69.0596338,25.6910205 68.3882254,25.6939436 67.7148451,25.697841 C67.6142817,25.697841 67.5689296,25.6861487 67.5689296,25.5663026 C67.5718873,21.6639949 67.5718873,17.7626615 67.5718873,13.8603538 C67.5718873,13.8447641 67.5738592,13.8291744 67.5787887,13.7707128 C67.715831,13.9119949 67.8331549,14.0337897 67.9504789,14.1536359 C68.9955493,15.2215333 70.0416056,16.2874821 71.0856901,17.3544051 C71.7778028,18.0608154 72.4689296,18.7662513 73.1570986,19.476559 C73.2428732,19.5662 73.2892113,19.5632769 73.374,19.4755846 C74.6409014,18.1767641 75.9107606,16.881841 77.1806197,15.5859436 C77.7583662,14.9964564 78.3370986,14.4069692 78.9148451,13.8184564 C78.9207606,13.8126103 78.9335775,13.8126103 78.9454085,13.8096872 C78.9769577,13.8574308 78.9601972,13.9110205 78.9601972,13.9607128 C78.9611831,17.8104051 78.9601972,21.6600974 78.9651268,25.5107641 C78.9651268,25.6617897 78.9296338,25.7017385 78.7748451,25.6997897 C78.1241408,25.6900462 77.4724507,25.6910205 76.8217465,25.6988154 C76.6847042,25.7007641 76.6472394,25.670559 76.6482254,25.5292769 C76.6531549,23.5055333 76.6511831,21.4808154 76.6511831,19.4570718 L76.6511831,19.2329692 C76.4707606,19.4171231 76.3199155,19.5710718 76.1680845,19.7259949 C75.2334366,20.6808667 74.2987887,21.6337897 73.3661127,22.5915846 C73.2970986,22.6627128 73.257662,22.6890205 73.1718873,22.6003538 C72.5655493,21.9728667 71.9532958,21.3502513 71.3430141,20.7266615 C70.8687887,20.2414308 70.3935775,19.7571744 69.8907606,19.2446615" id="Fill-11" fill="#339D48"></path>
                <path d="M108.902746,19.8365846 C108.902746,17.9424308 108.903732,16.0492513 108.900775,14.1550974 C108.899789,14.0196615 108.923451,13.9689949 109.077254,13.9709436 C109.732887,13.9806872 110.389507,13.9797128 111.046127,13.9719179 C111.181197,13.9709436 111.22162,13.9972513 111.220634,14.1395077 C111.214718,15.6098154 111.219648,17.0791487 111.212746,18.5504308 C111.212746,18.6907385 111.250211,18.7199692 111.388239,18.7199692 C113.065282,18.7141231 114.74331,18.7141231 116.421338,18.7199692 C116.564296,18.7199692 116.593873,18.6809949 116.592887,18.5465333 C116.587958,17.0762256 116.591901,15.6068923 116.586972,14.1365846 C116.585986,14.0069949 116.619507,13.9709436 116.75162,13.9719179 C117.413169,13.9787385 118.074718,13.9777641 118.737254,13.9728923 C118.845704,13.9728923 118.892042,13.9875077 118.892042,14.1141744 C118.888099,17.9278154 118.888099,21.7414564 118.892042,25.5550974 C118.892042,25.678841 118.850634,25.6993026 118.738239,25.6983282 C118.07669,25.6934564 117.415141,25.6924821 116.753592,25.6993026 C116.623451,25.7002769 116.585986,25.6681231 116.586972,25.5365846 C116.591901,24.1081744 116.587958,22.6807385 116.592887,21.2523282 C116.593873,21.1198154 116.569225,21.0759692 116.422324,21.0769436 C114.745282,21.0827897 113.067254,21.0818154 111.389225,21.0779179 C111.256127,21.0769436 111.211761,21.1003282 111.212746,21.2455077 C111.219648,22.6729436 111.214718,24.1013538 111.220634,25.5297641 C111.22162,25.6681231 111.186127,25.7012513 111.048099,25.6993026 C110.385563,25.6915077 109.724014,25.6924821 109.063451,25.6993026 C108.92838,25.7002769 108.899789,25.6613026 108.899789,25.5336615 C108.903732,23.6336615 108.902746,21.7346359 108.902746,19.8365846" id="Fill-13" fill="#339D48"></path>
                <path d="M42.287,19.8318103 C42.287,17.933759 42.2879859,16.0347333 42.2840423,14.1357077 C42.2840423,14.0070923 42.3116479,13.9700667 42.4467183,13.9720154 C43.1131972,13.9798103 43.7796761,13.9788359 44.4461549,13.9729897 C44.5723521,13.971041 44.6039014,14.0051436 44.6039014,14.1279128 C44.5989718,15.5982205 44.6029155,17.0685282 44.5979859,18.5378615 C44.597,18.6762205 44.6275634,18.7200667 44.7774225,18.7190923 C46.4446056,18.7142205 48.1117887,18.7142205 49.7789718,18.7190923 C49.9268592,18.7190923 49.9731972,18.6918103 49.9731972,18.5349385 C49.9662958,17.0704769 49.9712254,15.605041 49.9653099,14.1405795 C49.9643239,13.9983231 50.0047465,13.971041 50.1398169,13.9720154 C50.8013662,13.9798103 51.4639014,13.9788359 52.1254507,13.9729897 C52.2368592,13.9720154 52.2644648,14.0022205 52.2634789,14.1113487 C52.2605211,17.9240154 52.2605211,21.7376564 52.2644648,25.5512974 C52.2644648,25.6652974 52.2398169,25.6994 52.1185493,25.6984256 C51.4510845,25.6925795 50.7846056,25.6916051 50.1171408,25.6984256 C49.9840423,25.7003744 49.9662958,25.6545795 49.9662958,25.5396051 C49.9702394,24.1121692 49.9662958,22.683759 49.9722113,21.2553487 C49.9731972,21.1082205 49.928831,21.077041 49.7878451,21.0780154 C48.1157324,21.0828872 46.4426338,21.0828872 44.7705211,21.077041 C44.6285493,21.077041 44.597,21.1130923 44.5979859,21.2495026 C44.6029155,22.6779128 44.5989718,24.1063231 44.6039014,25.5347333 C44.6048873,25.6623744 44.573338,25.6994 44.4402394,25.6984256 C43.7727746,25.6925795 43.1062958,25.6925795 42.438831,25.6984256 C42.3136197,25.6994 42.2840423,25.6662718 42.2840423,25.5444769 C42.2879859,23.6396051 42.287,21.7357077 42.287,19.8318103" id="Fill-15" fill="#339D48"></path>
                <path d="M81.6899014,19.8194359 C81.6899014,17.9311282 81.6918732,16.0428205 81.6869437,14.1545128 C81.6869437,14.0142051 81.717507,13.9723077 81.8663803,13.9723077 C84.4494789,13.9771795 87.0325775,13.9762051 89.616662,13.9732821 C89.7428592,13.9723077 89.7862394,13.9956923 89.7842676,14.1321026 C89.7753944,14.6913846 89.7744085,15.251641 89.7852535,15.8109231 C89.7882113,15.9590256 89.7379296,15.9785128 89.6058169,15.9785128 C87.8065211,15.9746154 86.0062394,15.9775385 84.2069437,15.9716923 C84.0452535,15.9707179 84.0058169,16.0106667 84.0077887,16.1685128 C84.0156761,16.9743077 84.0156761,17.7801026 84.0077887,18.5858974 C84.0068028,18.7427692 84.0363803,18.7944103 84.2099014,18.7934359 C85.6177887,18.7846667 87.0256761,18.7914872 88.4335634,18.7846667 C88.5932817,18.7846667 88.6228592,18.8304615 88.6208873,18.9766154 C88.6120141,19.6041026 88.613,20.2325641 88.6208873,20.8600513 C88.6218732,20.9984103 88.5922958,21.0442051 88.4414507,21.0432308 C87.0227183,21.0364103 85.6039859,21.0412821 84.1852535,21.0364103 C84.0521549,21.0364103 84.0058169,21.0578462 84.0077887,21.204 C84.0156761,21.9834872 84.0137042,22.7629744 84.0087746,23.5414872 C84.0077887,23.6662051 84.0432817,23.698359 84.167507,23.6973846 C86.0308873,23.6944615 87.8942676,23.6973846 89.7576479,23.6925128 C89.9045493,23.6915385 89.9400423,23.7305128 89.9380704,23.8717949 C89.9291972,24.4369231 89.9321549,25.0020513 89.9370845,25.5662051 C89.9370845,25.6675385 89.9124366,25.6977436 89.8069437,25.6977436 C87.1439859,25.6948205 84.4820141,25.6938462 81.8180704,25.6987179 C81.6721549,25.6987179 81.6899014,25.6227179 81.6899014,25.5321026 C81.6899014,23.6282051 81.6899014,21.7243077 81.6899014,19.8194359" id="Fill-17" fill="#339D48"></path>
                <path d="M121.59838,19.8194359 C121.59838,17.9252821 121.599366,16.0311282 121.595423,14.1379487 C121.595423,14.0122564 121.619085,13.9723077 121.757113,13.9723077 C124.345141,13.9762051 126.933169,13.9771795 129.522183,13.9723077 C129.669085,13.9713333 129.693732,14.0151795 129.692746,14.1467179 C129.684859,14.6913846 129.683873,15.2350769 129.692746,15.7797436 C129.695704,15.9317436 129.665141,15.9804615 129.497535,15.9804615 C127.702183,15.9726667 125.908803,15.9755897 124.113451,15.9755897 C123.882746,15.9765641 123.909366,15.9492821 123.90838,16.174359 C123.907394,16.9957436 123.911338,17.8161538 123.905423,18.6375385 C123.904437,18.7642051 123.941901,18.7914872 124.063169,18.7914872 C125.381338,18.7866154 126.699507,18.7905128 128.017676,18.785641 C128.150775,18.7846667 128.184296,18.8187692 128.182324,18.948359 C128.175423,19.5924103 128.175423,20.2354872 128.182324,20.8785641 C128.184296,21.0081538 128.152746,21.0432308 128.018662,21.0422564 C126.706408,21.0373846 125.393169,21.0412821 124.080915,21.0364103 C123.945845,21.0354359 123.902465,21.0607692 123.904437,21.2049744 C123.912324,21.9844615 123.911338,22.7629744 123.905423,23.5424615 C123.904437,23.6691282 123.941901,23.698359 124.065141,23.6973846 C125.928521,23.6944615 127.791901,23.6964103 129.655282,23.6934872 C129.794296,23.6925128 129.843592,23.7188205 129.840634,23.8688718 C129.830775,24.4281538 129.833732,24.9884103 129.838662,25.5486667 C129.839648,25.6587692 129.820915,25.6987179 129.694718,25.6987179 C127.042606,25.6938462 124.391479,25.6938462 121.739366,25.6987179 C121.612183,25.6987179 121.596408,25.6558462 121.596408,25.5476923 C121.599366,23.6379487 121.59838,21.7282051 121.59838,19.8194359" id="Fill-19" fill="#339D48"></path>
                <path d="M131.927324,19.8356103 C131.927324,17.9424308 131.92831,16.0482769 131.924366,14.1541231 C131.924366,14.0196615 131.947042,13.9709436 132.099859,13.9709436 C134.646479,13.9767897 137.192113,13.9767897 139.738732,13.9719179 C139.869859,13.9719179 139.906338,14.0011487 139.904366,14.1336615 C139.895493,14.6880718 139.896479,15.2424821 139.90338,15.7968923 C139.905352,15.9352513 139.876761,15.9800718 139.725915,15.9790974 C137.963099,15.9732513 136.199296,15.9781231 134.436479,15.9722769 C134.28169,15.9713026 134.235352,16.0024821 134.236338,16.1652 C134.246197,17.0547897 134.244225,17.9443795 134.23831,18.8339692 C134.23831,18.9557641 134.268873,18.9898667 134.39507,18.9898667 C135.702394,18.9849949 137.009718,18.9888923 138.317042,18.9840205 C138.46,18.9830462 138.50338,19.0161744 138.501408,19.1633026 C138.492535,19.7907897 138.492535,20.4192513 138.501408,21.0457641 C138.50338,21.1928923 138.474789,21.2377128 138.31507,21.2367385 C137.013662,21.2299179 135.711268,21.2357641 134.408873,21.2289436 C134.266901,21.2289436 134.237324,21.2649949 134.23831,21.3994564 C134.243239,22.7762256 134.239296,24.1529949 134.245211,25.5287897 C134.246197,25.6690974 134.207746,25.7012513 134.069718,25.6993026 C133.408169,25.6915077 132.74662,25.6915077 132.08507,25.6993026 C131.947042,25.7012513 131.924366,25.6593538 131.924366,25.5336615 C131.92831,23.6336615 131.927324,21.7346359 131.927324,19.8356103" id="Fill-21" fill="#339D48"></path>
            </g>
        </g>
    </g>
</svg>