<?xml version="1.0" encoding="UTF-8"?>
<svg width="117px" height="24px" viewBox="0 0 117 24" version="1.1" xmlns="http://www.w3.org/2000/svg" xmlns:xlink="http://www.w3.org/1999/xlink">
    <!-- Generator: sketchtool 52.5 (67469) - http://www.bohemiancoding.com/sketch -->
    <title>80AA9549-33A0-46FD-AAAA-72E9F13D92C0</title>
    <desc>Created with sketchtool.</desc>
    <g id="Page-1" stroke="none" stroke-width="1" fill="none" fill-rule="evenodd">
        <g id="MD-ChartVideoMobile" transform="translate(-33.000000, -513.000000)" fill-rule="nonzero">
            <g id="SunbasketLogo-Copy-5" transform="translate(33.000000, 513.000000)">
                <path d="M24,11.7808916 C24,12.9484935 23.1064286,13.8980772 22,13.8980772 C20.8937143,13.8980772 20,12.9484935 20,11.7808916 L20,2 L18,2 L18,11.7808916 C18,14.1072669 19.7871428,16 22,16 C24.2128571,16 26,14.1072669 26,11.7808916 L26,2 L24,2 L24,11.7808916" id="Fill-1" fill="#FFAB22"></path>
                <path d="M69.5362317,1 C72.0053334,1 74,2.92635954 74,5.29462714 L74,15 L71.7681159,15 L71.7681159,9.05914738 L67.3043481,9.05914738 L67.3043481,15 L65.0724639,15 L65.0724639,9.05914738 L63,9.05914738 L63,6.92653365 L65.0724639,6.92653365 L65.0724639,5.29462714 C65.0724639,2.92635954 67.0668118,1 69.5362317,1 Z M71.7681159,6.92653365 L71.7681159,5.29462714 C71.7681159,4.10599963 70.7711013,3.13946859 69.5362317,3.13946859 C68.3013622,3.13946859 67.3043481,4.10599963 67.3043481,5.29462714 L67.3043481,6.92653365 L71.7681159,6.92653365 Z" id="Fill-2" fill="#FFAB22"></path>
                <path d="M39.0466806,0 C37.5016866,0 36.0935063,1.25555265 36.0935063,2.80144006 L36.0935063,10.274076 L32.2164404,1.78976861 L30,1.78976861 L30,15 L32.0311688,15 L32.0311688,6.85306157 L36.4044202,15 L38.1246751,15 L38.1246751,2.80144006 C38.1246751,2.379874 38.6220212,2.03887583 39.0433437,2.03887583 C39.4648112,2.03887583 39.9621574,2.37043812 39.9621574,2.80594025 L42,2.80594025 C42,1.35426647 40.5916746,0 39.0466806,0" id="Fill-3" fill="#FFAD22"></path>
                <path d="M57.4930805,8.37219053 C58.1022547,7.69634542 58.4735842,6.78620144 58.4735842,5.81086764 C58.4735842,3.72035988 56.7428373,2 54.6151257,2 L49.6100667,2 L49.6100667,15.4518602 L51.8853695,15.4518602 L51.8853695,4.06951696 L54.6151257,4.06951696 C55.5681742,4.06951696 56.3432942,4.88254147 56.3432942,5.82831074 C56.3432942,6.77422781 55.5519437,7.61726032 54.6151257,7.61726032 L52.947177,7.61726032 L52.947177,9.68677725 L54.6151257,9.68677725 C54.9667361,9.68677725 55.3174358,9.73289791 55.645838,9.85470378 C55.7253219,9.88441613 55.8037437,9.90791993 55.8824692,9.9391105 C58.3044534,10.8915318 59.8694063,13.1502617 59.8694063,15.6957676 C59.8694063,19.1186008 57.0120813,21.9261962 53.4999241,21.9261962 C49.9879183,21.9261962 47.1305932,19.1474262 47.1305932,15.7475055 L45,15.7475055 C45,20.1821847 48.8131038,24 53.4999241,24 C58.1868958,24 62,20.2691044 62,15.7016805 C62,12.5993267 60.2572696,9.80089636 57.4930805,8.37219053" id="Fill-5" fill="#FFAD22"></path>
                <polyline id="Fill-7" fill="#FFAB22" points="113.814295 2 108 2 108 4 111.393443 4 111.393443 16 113.459017 16 113.459017 4 117 4 117 2 113.814295 2"></polyline>
                <polyline id="Fill-8" fill="#FFAC22" points="98 16 105 16 105 14 100 14 100 9.84615385 103.571429 9.84615385 103.571429 7.84615387 100 7.84615387 100 4 105 4 105 2 98 2 98 16"></polyline>
                <path d="M15.006793,10.2820483 C14.4386311,9.60686036 13.7577711,9.06551698 13.0333685,8.58444177 C12.5302944,8.25051904 12.0058258,7.9458126 11.4836171,7.64584806 C10.467073,7.06136848 8.78232478,6.19298574 9.00184525,4.73614631 C9.15025133,3.75273383 10.2118446,3.06607359 11.1239771,3.16856019 C12.197021,3.28924964 13.1966906,4.31763386 13.5411132,5.33286312 L15.5419589,4.63274193 C14.9032853,2.75127146 13.1153309,1.23324601 11.2903125,1.02291903 C9.26475759,0.789188387 7.21735606,2.37298882 6.91014793,4.41140148 C6.30974355,8.39415325 11.1625477,9.23546117 13.2552996,11.5144879 C14.1880734,12.530176 14.7169114,13.331866 14.8517576,14.715894 C15.0197502,16.4413401 14.5162242,18.1296157 13.4335376,19.4700487 C12.3507005,20.8106346 10.8187276,21.6430706 9.11951546,21.8136267 C7.42437127,21.9832649 5.75725099,21.4729734 4.43681338,20.3739193 C3.11652643,19.2747123 2.30036822,17.7816201 2.1320742,16.0566329 C2.1320742,16.0566329 2.08310772,15.846153 2.06864377,15.5402228 L0.0296795691,15.5402228 C0.0296795691,15.5402228 -0.032093528,15.7820606 0.0225982629,16.2262712 C0.246488073,18.522583 1.3376119,20.5824108 3.09498118,22.0453688 C4.8205599,23.4818638 6.98548095,24.1594991 9.20418982,23.9682928 C9.24517099,23.9649276 9.28675483,23.95835 9.32788666,23.9545259 C11.589686,23.7273728 13.6288009,22.61807 15.0700727,20.8335794 C16.5110432,19.0493947 17.1815073,16.8012669 16.9577682,14.5049552 C16.7864608,12.7489161 16.1349807,11.6226342 15.006793,10.2820483" id="Fill-10" fill="#FFAC22"></path>
                <polyline id="Fill-12" fill="#FFAB22" points="90.2985697 8.14861536 94.6964281 2 92.2936901 2 88.9657742 6.64000001 88.9657742 2 87 2 87 16 88.9657742 16 88.9657742 9.92999999 89.0017201 9.93323076 92.6524441 16 95 16 90.2985697 8.14861536"></polyline>
                <path d="M81.4916496,8.52715052 C81.0594103,8.25117183 80.6311774,7.96815138 80.1953769,7.69756642 C79.5516921,7.29753217 78.7815854,6.91787419 78.4636008,6.16994499 C78.1763317,5.49408187 78.6042679,4.61730273 79.2009151,4.30971083 C80.4531181,3.66486163 81.6124334,5.00789796 82.0822134,6.04588943 L82.0912647,6.06641554 L83.9246835,5.16656323 L83.9157804,5.14693607 C83.214523,3.58050983 81.702947,2 79.9081078,2 C79.8305037,2 79.7518608,2.00299651 79.6744048,2.00883971 C77.8623535,2.14278376 76.52943,3.51203955 76.3578998,5.41587293 C76.2307355,6.82378375 76.8680398,8.0721303 78.1064433,8.84073543 C80.2065056,10.1884163 80.4176545,10.323559 80.4431764,10.33989 C81.0527332,10.7247919 81.7511712,11.2461848 81.9127602,12.004452 C82.0750911,12.7672139 81.4168649,13.5881081 80.7093752,13.8091008 C79.9588546,14.043428 79.1807351,13.729094 78.6290476,13.2012585 C78.3103212,12.8960639 77.9918919,12.5024721 77.7805945,12.1109779 L77.769911,12.0913508 L76,13.1208022 L76.0097936,13.1395304 C76.9607794,14.930695 78.5219152,16 80.186029,16 C80.5903722,16 80.9780966,15.9358746 81.3386671,15.8097216 C82.5951732,15.3699835 83.9111807,14.059759 83.9953138,12.4073329 C84.1085296,10.1801759 82.1388956,8.93587467 81.4916496,8.52715052" id="Fill-13" fill="#FFAB22"></path>
            </g>
        </g>
    </g>
</svg>